<mxfile host="app.diagrams.net" agent="Mozilla/5.0 (Windows NT 10.0; Win64; x64) AppleWebKit/537.36 (KHTML, like Gecko) Chrome/135.0.0.0 Safari/537.36 Edg/135.0.0.0" version="26.1.3">
  <diagram name="Page-1" id="SKjYtJoIedTVVzi5Itgg">
    <mxGraphModel>
      <root>
        <mxCell id="0" />
        <mxCell id="1" parent="0" />
        <mxCell id="2" value="Cliente" style="whiteSpace=wrap;strokeWidth=2;" vertex="1" parent="1">
          <mxGeometry x="305" y="8" width="111" height="54" as="geometry" />
        </mxCell>
        <mxCell id="3" value="servicio_preguntas.py" style="whiteSpace=wrap;strokeWidth=2;" vertex="1" parent="1">
          <mxGeometry x="183" y="152" width="217" height="54" as="geometry" />
        </mxCell>
        <mxCell id="4" value="servicio_diagnostico.py" style="whiteSpace=wrap;strokeWidth=2;" vertex="1" parent="1">
          <mxGeometry x="290" y="296" width="227" height="54" as="geometry" />
        </mxCell>
        <mxCell id="5" value="Gemini" style="whiteSpace=wrap;strokeWidth=2;" vertex="1" parent="1">
          <mxGeometry x="151" y="440" width="111" height="54" as="geometry" />
        </mxCell>
        <mxCell id="6" value="servicio_hospital.py" style="whiteSpace=wrap;strokeWidth=2;" vertex="1" parent="1">
          <mxGeometry x="502" y="440" width="203" height="54" as="geometry" />
        </mxCell>
        <mxCell id="7" value="Inicia consulta" style="curved=1;startArrow=none;endArrow=block;exitX=0.03;exitY=1;entryX=0.38;entryY=0;" edge="1" parent="1" source="2" target="3">
          <mxGeometry relative="1" as="geometry">
            <Array as="points">
              <mxPoint x="222" y="107" />
            </Array>
          </mxGeometry>
        </mxCell>
        <mxCell id="8" value="Genera preguntas dinámicas" style="curved=1;startArrow=none;endArrow=block;exitX=0.62;exitY=0;entryX=0.5;entryY=1;" edge="1" parent="1" source="3" target="2">
          <mxGeometry relative="1" as="geometry">
            <Array as="points">
              <mxPoint x="361" y="107" />
            </Array>
          </mxGeometry>
        </mxCell>
        <mxCell id="9" value="Genera historial de conversación" style="curved=1;startArrow=none;endArrow=block;exitX=0.5;exitY=1;entryX=0.31;entryY=0;" edge="1" parent="1" source="3" target="4">
          <mxGeometry relative="1" as="geometry">
            <Array as="points">
              <mxPoint x="291" y="251" />
            </Array>
          </mxGeometry>
        </mxCell>
        <mxCell id="10" value="Envía historial para análisis" style="curved=1;startArrow=none;endArrow=block;exitX=0.01;exitY=1;entryX=0.16;entryY=0;" edge="1" parent="1" source="4" target="5">
          <mxGeometry relative="1" as="geometry">
            <Array as="points">
              <mxPoint x="108" y="395" />
            </Array>
          </mxGeometry>
        </mxCell>
        <mxCell id="11" value="Respuesta procesada" style="curved=1;startArrow=none;endArrow=block;exitX=0.83;exitY=0;entryX=0.34;entryY=1;" edge="1" parent="1" source="5" target="4">
          <mxGeometry relative="1" as="geometry">
            <Array as="points">
              <mxPoint x="304" y="395" />
            </Array>
          </mxGeometry>
        </mxCell>
        <mxCell id="12" value="Devuelve respuesta al cliente" style="curved=1;startArrow=none;endArrow=block;exitX=0.68;exitY=0;entryX=1.01;entryY=0.98;" edge="1" parent="1" source="4" target="2">
          <mxGeometry relative="1" as="geometry">
            <Array as="points">
              <mxPoint x="516" y="251" />
              <mxPoint x="516" y="107" />
            </Array>
          </mxGeometry>
        </mxCell>
        <mxCell id="13" value="Solicita almacenamiento de datos" style="curved=1;startArrow=none;endArrow=block;exitX=0.66;exitY=1;entryX=0.31;entryY=0;" edge="1" parent="1" source="4" target="6">
          <mxGeometry relative="1" as="geometry">
            <Array as="points">
              <mxPoint x="502" y="395" />
            </Array>
          </mxGeometry>
        </mxCell>
        <mxCell id="14" value="Almacena datos o complementa análisis" style="curved=1;startArrow=none;endArrow=block;exitX=0.68;exitY=0;entryX=0.99;entryY=1;" edge="1" parent="1" source="6" target="4">
          <mxGeometry relative="1" as="geometry">
            <Array as="points">
              <mxPoint x="704" y="395" />
            </Array>
          </mxGeometry>
        </mxCell>
      </root>
    </mxGraphModel>
  </diagram>
</mxfile>
